<?xml version="1.0" encoding="UTF-8"?>
<svg xmlns="http://www.w3.org/2000/svg" xmlns:xlink="http://www.w3.org/1999/xlink" viewBox="0 0 604.8 793.25">
  <defs>
    <style>
      .cls-1 {
        fill: none;
      }

      .cls-2, .cls-3 {
        fill: #3cb056;
      }

      .cls-4 {
        fill: #035f1d;
      }

      .cls-5, .cls-6 {
        fill: #00963e;
      }

      .cls-7 {
        fill: #fff;
        opacity: .65;
      }

      .cls-8 {
        fill: #e2e8f0;
      }

      .cls-9 {
        fill: #d8f999;
      }

      .cls-10 {
        fill: #f3702c;
      }

      .cls-11 {
        opacity: .3;
      }

      .cls-12 {
        fill: #fecc2b;
      }

      .cls-6 {
        font-family: Courier-Bold, Courier;
        font-size: 25px;
        font-weight: 700;
        letter-spacing: .05em;
      }

      .cls-13 {
        fill: #ffec85;
      }

      .cls-3 {
        opacity: .2;
      }

      .cls-14 {
        clip-path: url(#clippath);
      }

      .cls-15 {
        fill: #3cd256;
      }
    </style>
    <clipPath id="clippath">
      <rect class="cls-1" x="322.93" y="148.96" width="107.89" height="566.04"/>
    </clipPath>
  </defs>
  <g id="frame">
    <g>
      <path class="cls-2" d="M22.98,62.45v696.08h343.76V62.45s-343.76,0-343.76,0ZM337.12,724.54H52.6V142.1h284.52v582.44Z"/>
      <rect class="cls-5" x="22.98" y="111.95" width="343.76" height="3"/>
      <path class="cls-2" d="M18.43,753.89h352.82c1.65,0,3,1.34,3,3v36.36H15.44v-36.36c0-1.65,1.34-3,3-3Z"/>
      <path class="cls-5" d="M49.6,139.1v588.44h290.52V139.1H49.6ZM336.12,723.54H53.6V143.1h282.52v580.44Z"/>
      <g>
        <path class="cls-2" d="M194.86,2.12C128.61,2.12,64.07,18.46,22.98,44.45v37.36h343.76v-37.36C325.65,18.46,261.11,2.12,194.86,2.12Z"/>
        <path class="cls-2" d="M194.86,0C125.13,0,57.47,17.2,14.22,44.55l8.65,17.69c42.75-24.32,106.77-39.36,171.98-39.36s129.23,15.05,171.98,39.36l8.65-17.69C332.25,17.2,264.59,0,194.86,0Z"/>
        <path class="cls-5" d="M194.86,20.12c-66.25,0-130.79,16.34-171.88,42.33v5c41.09-25.99,105.63-42.33,171.88-42.33s130.79,16.34,171.88,42.33v-5c-41.09-25.99-105.63-42.33-171.88-42.33Z"/>
      </g>
      <g>
        <rect class="cls-9" x="104.25" y="64.45" width="181.22" height="30.57" rx="5" ry="5"/>
        <text class="cls-6" transform="translate(122.35 87.79)"><tspan x="0" y="0">TELEPHONE</tspan></text>
      </g>
    </g>
    <rect class="cls-5" x="22.98" y="750.81" width="343.76" height="3.08"/>
  </g>
  <g id="s9">
    <g>
      <polygon class="cls-15" points="454.82 787.61 454.82 80.07 439.86 77.59 321.43 143.67 321.43 723.79 439.86 789.86 454.82 787.61"/>
      <polygon class="cls-4" points="439.86 789.86 439.86 77.59 319.74 142.1 319.74 725.35 439.86 789.86"/>
      <polygon class="cls-2" points="439.86 789.86 439.86 77.59 319.74 142.1 319.74 725.35 439.86 789.86"/>
    </g>
    <g>
      <polygon class="cls-8" points="439.86 789.86 439.86 77.59 319.74 142.1 319.74 724.54 439.86 789.86"/>
      <g class="cls-14">
        <path class="cls-3" d="M276.95,364.29c-20.41-85.12-16.47-178.07,9.37-207.46,25.17-29.9,62.57,13.94,82.98,99.05.92,4.18,1.84,8.36,2.76,12.54,1.8-2.14,3.6-4.27,5.39-6.41,37.09-40.11,78.67-26.27,91.53,32.24,12.86,58.51-7.59,140.79-45.36,180.39-1.8,2.14-3.6,4.27-5.17,4.83,10.82,56.98,7.67,117.38-10.07,142.41-20.87,31.39-53.71,3.2-73.82-62.51-1.14-2.6-2.06-6.78-2.52-8.87-1.58.56-3.38,2.69-4.27,3.76-32.86,25.86-66.57,3.99-75.57-49.88-7.39-43.93,4.6-97.7,27.72-129.13-.92-4.18-1.84-8.36-2.76-12.54l-.22,1.58Z"/>
      </g>
      <polygon class="cls-7" points="345.84 738.73 439.86 242.59 439.63 154.27 333.19 731.85 345.84 738.73"/>
      <polygon class="cls-7" points="439.86 77.59 384.3 107.43 319.74 487.62 319.74 724.54 439.86 77.59"/>
      <polygon class="cls-2" points="319.74 442.44 439.86 444.88 439.86 425.31 319.74 426.44 319.74 442.44"/>
      <polygon class="cls-2" points="319.74 291.39 439.86 260.15 439.86 240.59 319.74 275.39 319.74 291.39"/>
      <polygon class="cls-5" points="319.74 291.39 439.86 260.15 439.86 257.38 319.74 289.12 319.74 291.39"/>
      <polygon class="cls-5" points="319.74 442.44 439.86 444.88 439.86 442.11 319.74 440.18 319.74 442.44"/>
      <polygon class="cls-2" points="319.74 593.49 439.86 629.6 439.86 610.03 319.74 577.49 319.74 593.49"/>
      <polygon class="cls-5" points="319.74 593.49 439.86 629.6 439.86 626.83 319.74 591.23 319.74 593.49"/>
      <polygon class="cls-2" points="401.42 768.96 401.42 98.23 394.18 102.12 394.18 765.02 401.42 768.96"/>
      <polygon class="cls-5" points="395.05 765.49 395.05 101.65 394.18 102.12 394.18 765.02 395.05 765.49"/>
      <polygon class="cls-5" points="401.42 768.96 401.42 98.23 400.54 98.71 400.54 768.47 401.42 768.96"/>
      <polygon class="cls-2" points="352.03 742.1 352.03 124.76 345.89 128.06 345.89 738.76 352.03 742.1"/>
      <polygon class="cls-5" points="346.6 739.15 346.6 127.68 345.87 128.07 345.87 738.75 346.6 739.15"/>
      <polygon class="cls-5" points="352.03 742.1 352.03 124.76 351.27 125.17 351.27 741.69 352.03 742.1"/>
      <path class="cls-2" d="M439.86,77.59v712.27l-120.12-65.32V142.1l120.12-64.51ZM325.94,711.4l104.89,53.86V102.13l-104.89,53.16v556.12Z"/>
    </g>
    <g>
      <path class="cls-11" d="M413.8,477.06c0,8.4,3.46,15.21,7.73,15.21s7.73-6.81,7.73-15.21-3.46-15.21-7.73-15.21-7.73,6.81-7.73,15.21Z"/>
      <path class="cls-10" d="M404.69,470.86c0,8.4,5.03,15.21,11.23,15.21s11.23-6.81,11.23-15.21-5.03-15.21-11.23-15.21-11.23,6.81-11.23,15.21Z"/>
      <path class="cls-12" d="M405.41,468.79c-.87,7,1.35,13.04,4.95,13.49,3.6.44,7.22-4.87,8.08-11.88.87-7-1.35-13.04-4.95-13.49-3.6-.45-7.22,4.87-8.08,11.88Z"/>
      <path class="cls-13" d="M407.92,464.4c-.41,3.34.83,6.23,2.77,6.47,1.94.24,3.85-2.27,4.26-5.6.41-3.34-.83-6.23-2.77-6.47-1.94-.24-3.85,2.27-4.26,5.6Z"/>
    </g>
  </g>
</svg>