<?xml version="1.0" encoding="UTF-8"?>
<svg xmlns="http://www.w3.org/2000/svg" xmlns:xlink="http://www.w3.org/1999/xlink" viewBox="0 0 604.8 793.25">
  <defs>
    <style>
      .cls-1 {
        fill: none;
      }

      .cls-2, .cls-3 {
        fill: #3cb056;
      }

      .cls-4 {
        fill: #035f1d;
      }

      .cls-5, .cls-6 {
        fill: #00963e;
      }

      .cls-7 {
        fill: #fff;
        opacity: .65;
      }

      .cls-8 {
        fill: #e2e8f0;
      }

      .cls-9 {
        fill: #d8f999;
      }

      .cls-10 {
        fill: #f3702c;
      }

      .cls-11 {
        opacity: .3;
      }

      .cls-12 {
        fill: #fecc2b;
      }

      .cls-6 {
        font-family: Courier-Bold, Courier;
        font-size: 25px;
        font-weight: 700;
        letter-spacing: .05em;
      }

      .cls-13 {
        fill: #ffec85;
      }

      .cls-3 {
        opacity: .2;
      }

      .cls-14 {
        clip-path: url(#clippath);
      }

      .cls-15 {
        fill: #3cd256;
      }
    </style>
    <clipPath id="clippath">
      <rect class="cls-1" x="148.38" y="148.96" width="175.93" height="566.04" transform="translate(472.69 863.95) rotate(180)"/>
    </clipPath>
  </defs>
  <g id="frame">
    <g>
      <path class="cls-2" d="M22.98,62.45v696.08h343.76V62.45s-343.76,0-343.76,0ZM337.12,724.54H52.6V142.1h284.52v582.44Z"/>
      <rect class="cls-5" x="22.98" y="111.95" width="343.76" height="3"/>
      <path class="cls-2" d="M18.43,753.89h352.82c1.65,0,3,1.34,3,3v36.36H15.44v-36.36c0-1.65,1.34-3,3-3Z"/>
      <path class="cls-5" d="M49.6,139.1v588.44h290.52V139.1H49.6ZM336.12,723.54H53.6V143.1h282.52v580.44Z"/>
      <g>
        <path class="cls-2" d="M194.86,2.12C128.61,2.12,64.07,18.46,22.98,44.45v37.36h343.76v-37.36C325.65,18.46,261.11,2.12,194.86,2.12Z"/>
        <path class="cls-2" d="M194.86,0C125.13,0,57.47,17.2,14.22,44.55l8.65,17.69c42.75-24.32,106.77-39.36,171.98-39.36s129.23,15.05,171.98,39.36l8.65-17.69C332.25,17.2,264.59,0,194.86,0Z"/>
        <path class="cls-5" d="M194.86,20.12c-66.25,0-130.79,16.34-171.88,42.33v5c41.09-25.99,105.63-42.33,171.88-42.33s130.79,16.34,171.88,42.33v-5c-41.09-25.99-105.63-42.33-171.88-42.33Z"/>
      </g>
      <g>
        <rect class="cls-9" x="104.25" y="64.45" width="181.22" height="30.57" rx="5" ry="5"/>
        <text class="cls-6" transform="translate(122.35 87.79)"><tspan x="0" y="0">TELEPHONE</tspan></text>
      </g>
    </g>
    <rect class="cls-5" x="22.98" y="750.81" width="343.76" height="3.08"/>
  </g>
  <g id="s3">
    <g>
      <polygon class="cls-15" points="124.81 764.2 124.81 102.68 134.06 101.11 334.07 143.95 334.07 722.71 134.06 765.53 124.81 764.2"/>
      <polygon class="cls-4" points="134.06 765.53 134.06 101.11 337.12 142.1 337.12 724.54 134.06 765.53"/>
      <polygon class="cls-2" points="134.06 765.53 134.06 101.11 337.12 142.1 337.12 724.54 134.06 765.53"/>
    </g>
    <g>
      <polygon class="cls-8" points="134.06 765.53 134.06 101.11 337.12 142.1 337.12 724.54 134.06 765.53"/>
      <g class="cls-14">
        <path class="cls-3" d="M399.29,364.29c33.28-85.12,26.86-178.07-15.28-207.46-41.04-29.9-102.03,13.94-135.31,99.05-1.5,4.18-3,8.36-4.49,12.54-2.93-2.14-5.86-4.27-8.79-6.41-60.48-40.11-128.28-26.27-149.25,32.24-20.97,58.51,12.38,140.79,73.97,180.39,2.93,2.14,5.86,4.27,8.44,4.83-17.65,56.98-12.5,117.38,16.42,142.41,34.03,31.39,87.57,3.2,120.37-62.51,1.86-2.6,3.35-6.78,4.1-8.87,2.57.56,5.5,2.69,6.97,3.76,53.57,25.86,108.55,3.99,123.23-49.88,12.05-43.93-7.49-97.7-45.21-129.13,1.5-4.18,3-8.36,4.49-12.54l.36,1.58Z"/>
      </g>
      <polygon class="cls-7" points="290.55 733.94 134.06 255.03 134.43 172.6 312.94 729.42 290.55 733.94"/>
      <polygon class="cls-7" points="134.06 101.11 224.48 119.36 337.12 487.62 337.12 724.54 134.06 101.11"/>
      <polygon class="cls-2" points="337.12 442.44 134.06 443.72 134.06 425.47 337.12 426.44 337.12 442.44"/>
      <polygon class="cls-2" points="337.12 291.39 134.06 271.41 134.06 253.16 337.12 275.39 337.12 291.39"/>
      <polygon class="cls-5" points="337.12 291.39 134.06 271.41 134.06 268.83 337.12 289.12 337.12 291.39"/>
      <polygon class="cls-5" points="337.12 442.44 134.06 443.72 134.06 441.14 337.12 440.18 337.12 442.44"/>
      <polygon class="cls-2" points="337.12 593.49 134.06 616.04 134.06 597.78 337.12 577.49 337.12 593.49"/>
      <polygon class="cls-5" points="337.12 593.49 134.06 616.04 134.06 613.45 337.12 591.23 337.12 593.49"/>
      <polygon class="cls-2" points="196.01 753.03 196.01 113.62 207.98 116.03 207.98 750.61 196.01 753.03"/>
      <polygon class="cls-5" points="206.54 750.9 206.54 115.74 207.98 116.03 207.98 750.61 206.54 750.9"/>
      <polygon class="cls-5" points="196.01 753.03 196.01 113.62 197.47 113.91 197.47 752.73 196.01 753.03"/>
      <polygon class="cls-2" points="279.72 736.13 279.72 130.52 290.47 132.69 290.47 733.96 279.72 736.13"/>
      <polygon class="cls-5" points="289.21 734.21 289.21 132.43 290.51 132.69 290.51 733.95 289.21 734.21"/>
      <polygon class="cls-5" points="279.72 736.13 279.72 130.52 281.04 130.78 281.04 735.86 279.72 736.13"/>
      <path class="cls-2" d="M134.06,101.11v664.42l203.06-40.99V142.1l-203.06-40.99ZM325.93,710.35l-177.55,33.83V122.46l177.55,33.83v554.06Z"/>
    </g>
    <g>
      <path class="cls-11" d="M175.7,478.46c0,8.4-5.03,15.21-11.23,15.21s-11.23-6.81-11.23-15.21,5.03-15.21,11.23-15.21,11.23,6.81,11.23,15.21Z"/>
      <path class="cls-10" d="M175.7,472.25c0,8.4-5.03,15.21-11.23,15.21s-11.23-6.81-11.23-15.21,5.03-15.21,11.23-15.21,11.23,6.81,11.23,15.21Z"/>
      <path class="cls-12" d="M175.72,471.24c0,7.06-4.08,12.78-9.11,12.78s-9.11-5.72-9.11-12.78,4.08-12.78,9.11-12.78,9.11,5.72,9.11,12.78Z"/>
      <path class="cls-13" d="M173.01,466.57c0,3.36-2.2,6.09-4.91,6.09s-4.91-2.72-4.91-6.09,2.2-6.09,4.91-6.09,4.91,2.72,4.91,6.09Z"/>
    </g>
  </g>
</svg>