<?xml version="1.0" encoding="UTF-8"?>
<svg xmlns="http://www.w3.org/2000/svg" viewBox="0 0 604.8 793.25">
  <defs>
    <style>
      .cls-1 {
        fill: #3cb056;
      }

      .cls-2 {
        fill: #035f1d;
      }

      .cls-3, .cls-4 {
        fill: #00963e;
      }

      .cls-5 {
        fill: #e2e8f0;
      }

      .cls-4 {
        font-family: Courier-Bold, Courier;
        font-size: 35px;
        font-weight: 700;
        letter-spacing: .05em;
      }

      .cls-6 {
        fill: #d8f999;
      }

      .cls-7 {
        fill: #fff;
      }

      .cls-8 {
        fill: #f3702c;
      }

      .cls-9 {
        opacity: .3;
      }

      .cls-10 {
        fill: #fecc2b;
      }

      .cls-11 {
        fill: #ffec85;
      }

      .cls-12 {
        fill: #3cd256;
      }
    </style>
  </defs>
  <g id="frame">
    <g>
      <path class="cls-1" d="M27.98,62.45v696.08h333.76V62.45s-333.76,0-333.76,0ZM337.12,724.54H52.6V142.1h284.52v582.44Z"/>
      <rect class="cls-3" x="27.98" y="111.95" width="333.76" height="3"/>
      <path class="cls-1" d="M23.43,753.89h342.82c1.65,0,3,1.34,3,3v36.36H20.44v-36.36c0-1.65,1.34-3,3-3Z"/>
      <path class="cls-3" d="M49.6,139.1v588.44h290.52V139.1H49.6ZM336.12,723.54H53.6V143.1h282.52v580.44Z"/>
      <g>
        <path class="cls-1" d="M194.86,2.12c-66.25,0-125.79,16.34-166.88,42.33v37.36h333.76v-37.36C320.65,18.46,261.11,2.12,194.86,2.12Z"/>
        <path class="cls-1" d="M194.86,0C125.13,0,62.47,17.2,19.22,44.55l8.65,17.69c42.75-24.32,101.77-39.36,166.98-39.36s124.23,15.05,166.98,39.36l8.65-17.69C327.25,17.2,264.59,0,194.86,0Z"/>
        <path class="cls-3" d="M194.86,20.12c-66.25,0-125.79,16.34-166.88,42.33v5c41.09-25.99,100.63-42.33,166.88-42.33s125.79,16.34,166.88,42.33v-5c-41.09-25.99-100.63-42.33-166.88-42.33Z"/>
      </g>
      <g>
        <rect class="cls-6" x="70.34" y="64.45" width="249.03" height="30.57" rx="5" ry="5"/>
        <text class="cls-4" transform="translate(93.34 89.79)"><tspan x="0" y="0">TELEPHONE</tspan></text>
      </g>
    </g>
    <rect class="cls-3" x="27.98" y="750.81" width="333.76" height="3.08"/>
  </g>
  <g id="s4">
    <g>
      <polygon class="cls-12" points="202.03 787.61 202.03 80.07 216.99 77.59 335.43 143.67 335.43 723.79 216.99 789.86 202.03 787.61"/>
      <polygon class="cls-2" points="216.99 789.86 216.99 77.59 337.12 142.1 337.12 725.35 216.99 789.86"/>
      <polygon class="cls-1" points="216.99 789.86 216.99 77.59 337.12 142.1 337.12 725.35 216.99 789.86"/>
    </g>
    <g>
      <polygon class="cls-5" points="216.99 789.86 216.99 77.59 337.12 142.1 337.12 724.54 216.99 789.86"/>
      <polygon class="cls-7" points="311.02 738.73 216.99 242.59 217.23 154.27 323.67 731.85 311.02 738.73"/>
      <polygon class="cls-7" points="216.99 77.59 272.55 107.43 337.12 487.62 337.12 724.54 216.99 77.59"/>
      <polygon class="cls-1" points="337.12 442.44 216.99 444.88 216.99 425.31 337.12 426.44 337.12 442.44"/>
      <polygon class="cls-1" points="337.12 291.39 216.99 260.15 216.99 240.59 337.12 275.39 337.12 291.39"/>
      <polygon class="cls-3" points="337.12 291.39 216.99 260.15 216.99 257.38 337.12 289.12 337.12 291.39"/>
      <polygon class="cls-3" points="337.12 442.44 216.99 444.88 216.99 442.11 337.12 440.18 337.12 442.44"/>
      <polygon class="cls-1" points="337.12 593.49 216.99 629.6 216.99 610.03 337.12 577.49 337.12 593.49"/>
      <polygon class="cls-3" points="337.12 593.49 216.99 629.6 216.99 626.83 337.12 591.23 337.12 593.49"/>
      <polygon class="cls-1" points="255.43 768.96 255.43 98.23 262.67 102.12 262.67 765.02 255.43 768.96"/>
      <polygon class="cls-3" points="261.8 765.49 261.8 101.65 262.67 102.12 262.67 765.02 261.8 765.49"/>
      <polygon class="cls-3" points="255.43 768.96 255.43 98.23 256.32 98.71 256.32 768.47 255.43 768.96"/>
      <polygon class="cls-1" points="304.83 742.1 304.83 124.76 310.97 128.06 310.97 738.76 304.83 742.1"/>
      <polygon class="cls-3" points="310.26 739.15 310.26 127.68 310.99 128.07 310.99 738.75 310.26 739.15"/>
      <polygon class="cls-3" points="304.83 742.1 304.83 124.76 305.58 125.17 305.58 741.69 304.83 742.1"/>
      <path class="cls-1" d="M216.99,77.59v712.27l120.12-65.32V142.1s-120.12-64.51-120.12-64.51ZM330.92,711.4l-104.89,53.86V102.13l104.89,53.16v556.12Z"/>
    </g>
    <g>
      <path class="cls-9" d="M242.83,477.51c0,8.4-3.46,15.21-7.73,15.21s-7.73-6.81-7.73-15.21,3.46-15.21,7.73-15.21,7.73,6.81,7.73,15.21Z"/>
      <path class="cls-8" d="M249.83,471.3c0,8.4-5.03,15.21-11.23,15.21s-11.23-6.81-11.23-15.21,5.03-15.21,11.23-15.21,11.23,6.81,11.23,15.21Z"/>
      <path class="cls-10" d="M249.11,469.24c.87,7-1.35,13.04-4.95,13.49-3.6.44-7.22-4.87-8.08-11.88-.87-7,1.35-13.04,4.95-13.49,3.6-.45,7.22,4.87,8.08,11.88Z"/>
      <path class="cls-11" d="M246.6,464.85c.41,3.34-.83,6.23-2.77,6.47-1.94.24-3.85-2.27-4.26-5.6-.41-3.34.83-6.23,2.77-6.47,1.94-.24,3.85,2.27,4.26,5.6Z"/>
    </g>
  </g>
</svg>