<?xml version="1.0" encoding="UTF-8"?>
<svg xmlns="http://www.w3.org/2000/svg" viewBox="0 0 604.8 793.25">
  <defs>
    <style>
      .cls-1 {
        fill: #3cb056;
      }

      .cls-2 {
        fill: #035f1d;
      }

      .cls-3, .cls-4 {
        fill: #00963e;
      }

      .cls-5 {
        fill: #e2e8f0;
      }

      .cls-4 {
        font-family: Courier-Bold, Courier;
        font-size: 35px;
        font-weight: 700;
        letter-spacing: .05em;
      }

      .cls-6 {
        fill: #d8f999;
      }

      .cls-7 {
        fill: #fff;
      }

      .cls-8 {
        fill: #f3702c;
      }

      .cls-9 {
        opacity: .3;
      }

      .cls-10 {
        fill: #fecc2b;
      }

      .cls-11 {
        fill: #ffec85;
      }

      .cls-12 {
        fill: #3cd256;
      }
    </style>
  </defs>
  <g id="frame">
    <g>
      <path class="cls-1" d="M27.98,62.45v696.08h333.76V62.45s-333.76,0-333.76,0ZM337.12,724.54H52.6V142.1h284.52v582.44Z"/>
      <rect class="cls-3" x="27.98" y="111.95" width="333.76" height="3"/>
      <path class="cls-1" d="M23.43,753.89h342.82c1.65,0,3,1.34,3,3v36.36H20.44v-36.36c0-1.65,1.34-3,3-3Z"/>
      <path class="cls-3" d="M49.6,139.1v588.44h290.52V139.1H49.6ZM336.12,723.54H53.6V143.1h282.52v580.44Z"/>
      <g>
        <path class="cls-1" d="M194.86,2.12c-66.25,0-125.79,16.34-166.88,42.33v37.36h333.76v-37.36C320.65,18.46,261.11,2.12,194.86,2.12Z"/>
        <path class="cls-1" d="M194.86,0C125.13,0,62.47,17.2,19.22,44.55l8.65,17.69c42.75-24.32,101.77-39.36,166.98-39.36s124.23,15.05,166.98,39.36l8.65-17.69C327.25,17.2,264.59,0,194.86,0Z"/>
        <path class="cls-3" d="M194.86,20.12c-66.25,0-125.79,16.34-166.88,42.33v5c41.09-25.99,100.63-42.33,166.88-42.33s125.79,16.34,166.88,42.33v-5c-41.09-25.99-100.63-42.33-166.88-42.33Z"/>
      </g>
      <g>
        <rect class="cls-6" x="70.34" y="69.45" width="249.03" height="30.57"/>
        <text class="cls-4" transform="translate(93.34 94.79)"><tspan x="0" y="0">TELEPHONE</tspan></text>
        <g>
          <path class="cls-6" d="M218.15,41.14c-.59-1.52-1.69-2.55-3.27-3.07-2.91-.96-6.67.23-8.54.96-.5-.41-1.09-.74-1.77-.96-2.88-.95-6.61.21-8.5.94v-1.44h-2.43v1.44c-1.89-.74-5.61-1.89-8.5-.94-.68.22-1.27.55-1.77.96-1.87-.73-5.64-1.92-8.54-.96-1.58.52-2.68,1.55-3.27,3.07-1.29,3.32-.98,9.08,2.78,13.88,1.79,2.29,4.9,4.97,10.1,6.44h-1.87c-1,0-1.82.7-1.82,1.56s.81,1.56,1.82,1.56h24.57c1,0,1.82-.7,1.82-1.56s-.81-1.56-1.82-1.56h-1.87c5.2-1.47,8.3-4.14,10.1-6.44,3.75-4.8,4.07-10.56,2.78-13.88ZM203.7,40.01c.88.29,1.48.87,1.83,1.79,2.02,5.19-.53,16.56-9.46,19.17v-19.64c1.32-.64,5.25-2.11,7.63-1.32ZM186.02,40.01c2.38-.79,6.31.68,7.63,1.32v19.64c-5.4-1.58-7.87-6.06-8.86-8.6-1.63-4.19-1.48-8.33-.61-10.57.36-.91.96-1.5,1.83-1.79ZM176.36,53.87c-3.15-4.03-3.64-9.12-2.49-12.07.36-.91.96-1.5,1.83-1.79,1.83-.6,4.56.12,6.33.78-.05.12-.11.23-.16.35-1.22,3.14-.98,7.8.61,11.89,1.1,2.83,2.76,5.19,4.85,6.95-4.77-.9-8.52-2.97-10.98-6.11ZM193.54,61.46l.1-.26v.26h-.1ZM196.07,61.2l.1.26h-.1v-.26ZM213.36,53.87c-2.46,3.14-6.21,5.22-10.98,6.11,2.09-1.76,3.75-4.12,4.85-6.95,1.59-4.08,1.83-8.75.61-11.89-.05-.12-.1-.24-.16-.35,1.77-.66,4.51-1.38,6.33-.78.88.29,1.48.87,1.83,1.79,1.15,2.95.66,8.04-2.49,12.07Z"/>
          <path class="cls-6" d="M193.65,37.72h2.43v-1.56h3.78c.57,0,1.04-.46,1.04-1.04h0c0-.57-.46-1.04-1.04-1.04h-3.78v-1.34c0-.67-.54-1.21-1.21-1.21h0c-.67,0-1.21.54-1.21,1.21v1.34h-3.78c-.57,0-1.04.46-1.04,1.04h0c0,.57.46,1.04,1.04,1.04h3.78v1.56Z"/>
        </g>
      </g>
    </g>
    <rect class="cls-3" x="27.98" y="750.81" width="333.76" height="3.08"/>
  </g>
  <g id="s6">
    <g>
      <path class="cls-10" d="M282.7,471.86c0,8.4,5.03,15.21,11.23,15.21s11.23-6.81,11.23-15.21-5.03-15.21-11.23-15.21-11.23,6.81-11.23,15.21Z"/>
      <path class="cls-8" d="M305.16,471.86c0-8.4-5.03-15.21-11.23-15.21-.17,0-.33.06-.49.07-3.66,2.81-6.2,8.5-6.2,15.15s2.54,12.34,6.2,15.15c.17.01.32.07.49.07,6.2,0,11.23-6.81,11.23-15.21Z"/>
      <path class="cls-11" d="M282.97,470.86c1.08.29,2.67-2.1,3.55-5.34.61-2.24.71-4.28.37-5.44-2.34,2.56-3.88,6.34-4.12,10.65.06.04.12.1.19.12Z"/>
    </g>
    <g>
      <polygon class="cls-12" points="297.36 789.86 297.36 77.59 319.74 77.59 336.87 143.67 336.87 723.79 319.74 789.86 297.36 789.86"/>
      <polygon class="cls-2" points="319.74 789.86 319.74 77.59 337.12 142.1 337.12 725.35 319.74 789.86"/>
      <polygon class="cls-1" points="319.74 789.86 319.74 77.59 337.12 142.1 336.85 726.39 319.74 789.86"/>
    </g>
    <g>
      <polygon class="cls-5" points="319.74 789.86 319.74 77.59 337.12 142.1 337.12 724.54 319.74 789.86"/>
      <polygon class="cls-7" points="333.34 738.73 319.74 242.59 319.78 154.27 335.17 731.85 333.34 738.73"/>
      <polygon class="cls-7" points="319.74 77.59 327.78 107.43 337.12 487.62 337.12 724.54 319.74 77.59"/>
      <polygon class="cls-1" points="337.12 442.44 319.74 444.88 319.74 425.31 337.12 426.44 337.12 442.44"/>
      <polygon class="cls-1" points="337.12 291.39 319.74 260.15 319.74 240.59 337.12 275.39 337.12 291.39"/>
      <polygon class="cls-3" points="337.12 291.39 319.74 260.15 319.74 257.38 337.12 289.12 337.12 291.39"/>
      <polygon class="cls-3" points="337.12 442.44 319.74 444.88 319.74 442.11 337.12 440.18 337.12 442.44"/>
      <polygon class="cls-1" points="337.12 593.49 319.74 629.6 319.74 610.03 337.12 577.49 337.12 593.49"/>
      <polygon class="cls-3" points="337.12 593.49 319.74 629.6 319.74 626.83 337.12 591.23 337.12 593.49"/>
      <polygon class="cls-1" points="325.3 768.96 325.3 98.23 326.35 102.12 326.35 765.02 325.3 768.96"/>
      <polygon class="cls-3" points="326.22 765.49 326.22 101.65 326.35 102.12 326.35 765.02 326.22 765.49"/>
      <polygon class="cls-3" points="325.3 768.96 325.3 98.23 325.43 98.71 325.43 768.47 325.3 768.96"/>
      <polygon class="cls-1" points="332.45 742.1 332.45 124.76 333.34 128.06 333.34 738.76 332.45 742.1"/>
      <polygon class="cls-3" points="333.23 739.15 333.23 127.68 333.34 128.07 333.34 738.75 333.23 739.15"/>
      <polygon class="cls-3" points="332.45 742.1 332.45 124.76 332.56 125.17 332.56 741.69 332.45 742.1"/>
      <path class="cls-1" d="M319.74,77.59v712.27l17.37-65.32V142.1l-17.37-64.51ZM336.22,711.4l-15.17,53.86V102.13l15.17,53.16v556.12Z"/>
    </g>
    <g>
      <path class="cls-9" d="M324.91,478.59c0,7.56-.83,13.68-1.85,13.68s-1.85-6.12-1.85-13.68.83-13.68,1.85-13.68,1.85,6.13,1.85,13.68Z"/>
      <path class="cls-8" d="M344.09,470.86c0,8.4-5.03,15.21-11.23,15.21s-11.23-6.81-11.23-15.21,5.03-15.21,11.23-15.21,11.23,6.81,11.23,15.21Z"/>
      <path class="cls-10" d="M343.37,468.8c.87,7-1.35,13.04-4.95,13.49-3.6.44-7.22-4.87-8.09-11.88-.87-7,1.35-13.04,4.95-13.49,3.6-.45,7.22,4.87,8.08,11.88Z"/>
      <path class="cls-11" d="M341.55,463.45c.88,3.24.07,6.29-1.82,6.8-1.89.51-4.13-1.7-5.02-4.94-.88-3.24-.07-6.29,1.82-6.8,1.89-.51,4.13,1.7,5.02,4.94Z"/>
    </g>
  </g>
</svg>