<?xml version="1.0" encoding="UTF-8"?>
<svg xmlns="http://www.w3.org/2000/svg" xmlns:xlink="http://www.w3.org/1999/xlink" viewBox="0 0 604.8 793.25">
  <defs>
    <style>
      .cls-1 {
        fill: none;
      }

      .cls-2, .cls-3 {
        fill: #3cb056;
      }

      .cls-4, .cls-5 {
        fill: #00963e;
      }

      .cls-6 {
        fill: #fff;
        opacity: .65;
      }

      .cls-7 {
        fill: #e2e8f0;
      }

      .cls-8 {
        fill: #d8f999;
      }

      .cls-9 {
        fill: #f3702c;
      }

      .cls-10 {
        opacity: .3;
      }

      .cls-11 {
        fill: #fecc2b;
      }

      .cls-5 {
        font-family: Courier-Bold, Courier;
        font-size: 25px;
        font-weight: 700;
        letter-spacing: .05em;
      }

      .cls-12 {
        fill: #ffec85;
      }

      .cls-3 {
        opacity: .2;
      }

      .cls-13 {
        clip-path: url(#clippath);
      }
    </style>
    <clipPath id="clippath">
      <rect class="cls-1" x="70.2" y="148.96" width="249.18" height="566.04" transform="translate(389.57 863.95) rotate(180)"/>
    </clipPath>
  </defs>
  <g id="frame">
    <g>
      <path class="cls-2" d="M22.98,62.45v696.08h343.76V62.45s-343.76,0-343.76,0ZM337.12,724.54H52.6V142.1h284.52v582.44Z"/>
      <rect class="cls-4" x="22.98" y="111.95" width="343.76" height="3"/>
      <path class="cls-2" d="M18.43,753.89h352.82c1.65,0,3,1.34,3,3v36.36H15.44v-36.36c0-1.65,1.34-3,3-3Z"/>
      <path class="cls-4" d="M49.6,139.1v588.44h290.52V139.1H49.6ZM336.12,723.54H53.6V143.1h282.52v580.44Z"/>
      <g>
        <path class="cls-2" d="M194.86,2.12C128.61,2.12,64.07,18.46,22.98,44.45v37.36h343.76v-37.36C325.65,18.46,261.11,2.12,194.86,2.12Z"/>
        <path class="cls-2" d="M194.86,0C125.13,0,57.47,17.2,14.22,44.55l8.65,17.69c42.75-24.32,106.77-39.36,171.98-39.36s129.23,15.05,171.98,39.36l8.65-17.69C332.25,17.2,264.59,0,194.86,0Z"/>
        <path class="cls-4" d="M194.86,20.12c-66.25,0-130.79,16.34-171.88,42.33v5c41.09-25.99,105.63-42.33,171.88-42.33s130.79,16.34,171.88,42.33v-5c-41.09-25.99-105.63-42.33-171.88-42.33Z"/>
      </g>
      <g>
        <rect class="cls-8" x="104.25" y="64.45" width="181.22" height="30.57" rx="5" ry="5"/>
        <text class="cls-5" transform="translate(122.35 87.79)"><tspan x="0" y="0">TELEPHONE</tspan></text>
      </g>
    </g>
    <rect class="cls-4" x="22.98" y="750.81" width="343.76" height="3.08"/>
  </g>
  <g id="s1">
    <g>
      <rect class="cls-7" x="-96.36" y="291.06" width="582.44" height="284.52" transform="translate(628.18 238.46) rotate(90)"/>
      <g class="cls-13">
        <path class="cls-3" d="M432.61,364.29c48.07-85.12,38.8-178.07-22.07-207.46-59.27-29.9-147.37,13.94-195.44,99.05-2.16,4.18-4.33,8.36-6.49,12.54-4.23-2.14-8.47-4.27-12.7-6.41-87.35-40.11-185.29-26.27-215.58,32.24-30.29,58.51,17.88,140.79,106.83,180.39,4.23,2.14,8.47,4.27,12.18,4.83-25.49,56.98-18.06,117.38,23.72,142.41,49.16,31.39,126.49,3.2,173.85-62.51,2.68-2.6,4.84-6.78,5.93-8.87,3.72.56,7.95,2.69,10.07,3.76,77.38,25.86,156.78,3.99,177.99-49.88,17.4-43.93-10.82-97.7-65.3-129.13,2.16-4.18,4.33-8.36,6.49-12.54l.52,1.58Z"/>
      </g>
      <polygon class="cls-6" points="265.01 724.54 52.6 277.03 53.06 204.72 299.12 724.54 265.01 724.54"/>
      <polygon class="cls-6" points="52.6 142.1 170.12 142.1 337.12 487.62 337.12 724.54 52.6 142.1"/>
      <rect class="cls-2" x="52.6" y="426.44" width="284.52" height="16"/>
      <rect class="cls-2" x="52.6" y="275.39" width="284.52" height="16"/>
      <rect class="cls-4" x="52.6" y="289.12" width="284.52" height="2.27"/>
      <rect class="cls-4" x="52.6" y="440.18" width="284.52" height="2.27"/>
      <rect class="cls-2" x="52.6" y="577.49" width="284.52" height="16"/>
      <rect class="cls-4" x="52.6" y="591.23" width="284.52" height="2.27"/>
      <rect class="cls-2" x="131.66" y="142.1" width="16" height="582.44"/>
      <rect class="cls-4" x="145.72" y="142.1" width="1.94" height="582.44"/>
      <rect class="cls-4" x="131.66" y="142.1" width="1.94" height="582.44"/>
      <rect class="cls-2" x="248.89" y="142.1" width="16" height="582.44"/>
      <rect class="cls-4" x="263.01" y="142.1" width="1.94" height="582.44"/>
      <rect class="cls-4" x="248.89" y="142.1" width="1.94" height="582.44"/>
      <path class="cls-2" d="M52.6,142.1v582.44h284.52V142.1H52.6ZM319.37,708.22H70.34V158.42h249.03v549.8Z"/>
    </g>
    <g>
      <path class="cls-10" d="M102.9,466.66c0,8.4-6.81,15.21-15.21,15.21s-15.21-6.81-15.21-15.21,6.81-15.21,15.21-15.21,15.21,6.81,15.21,15.21Z"/>
      <path class="cls-9" d="M100.63,460.45c0,8.4-6.81,15.21-15.21,15.21s-15.21-6.81-15.21-15.21,6.81-15.21,15.21-15.21,15.21,6.81,15.21,15.21Z"/>
      <path class="cls-11" d="M97.38,459.44c0,7.06-5.72,12.78-12.78,12.78s-12.78-5.72-12.78-12.78,5.72-12.78,12.78-12.78,12.78,5.72,12.78,12.78Z"/>
      <ellipse class="cls-12" cx="83.38" cy="454.77" rx="7.4" ry="6.09"/>
    </g>
  </g>
</svg>