<?xml version="1.0" encoding="UTF-8"?>
<svg xmlns="http://www.w3.org/2000/svg" xmlns:xlink="http://www.w3.org/1999/xlink" viewBox="0 0 604.8 793.25">
  <defs>
    <style>
      .cls-1 {
        fill: none;
      }

      .cls-2, .cls-3 {
        fill: #3cb056;
      }

      .cls-4 {
        fill: #035f1d;
      }

      .cls-5, .cls-6 {
        fill: #00963e;
      }

      .cls-7 {
        fill: #fff;
        opacity: .65;
      }

      .cls-8 {
        fill: #e2e8f0;
      }

      .cls-9 {
        fill: #d8f999;
      }

      .cls-10 {
        fill: #f3702c;
      }

      .cls-11 {
        opacity: .3;
      }

      .cls-12 {
        fill: #fecc2b;
      }

      .cls-6 {
        font-family: Courier-Bold, Courier;
        font-size: 25px;
        font-weight: 700;
        letter-spacing: .05em;
      }

      .cls-13 {
        fill: #ffec85;
      }

      .cls-3 {
        opacity: .2;
      }

      .cls-14 {
        clip-path: url(#clippath);
      }

      .cls-15 {
        fill: #3cd256;
      }
    </style>
    <clipPath id="clippath">
      <rect class="cls-1" x="105.47" y="148.96" width="218.84" height="566.04" transform="translate(429.78 863.95) rotate(180)"/>
    </clipPath>
  </defs>
  <g id="frame">
    <g>
      <path class="cls-2" d="M22.98,62.45v696.08h343.76V62.45s-343.76,0-343.76,0ZM337.12,724.54H52.6V142.1h284.52v582.44Z"/>
      <rect class="cls-5" x="22.98" y="111.95" width="343.76" height="3"/>
      <path class="cls-2" d="M18.43,753.89h352.82c1.65,0,3,1.34,3,3v36.36H15.44v-36.36c0-1.65,1.34-3,3-3Z"/>
      <path class="cls-5" d="M49.6,139.1v588.44h290.52V139.1H49.6ZM336.12,723.54H53.6V143.1h282.52v580.44Z"/>
      <g>
        <path class="cls-2" d="M194.86,2.12C128.61,2.12,64.07,18.46,22.98,44.45v37.36h343.76v-37.36C325.65,18.46,261.11,2.12,194.86,2.12Z"/>
        <path class="cls-2" d="M194.86,0C125.13,0,57.47,17.2,14.22,44.55l8.65,17.69c42.75-24.32,106.77-39.36,171.98-39.36s129.23,15.05,171.98,39.36l8.65-17.69C332.25,17.2,264.59,0,194.86,0Z"/>
        <path class="cls-5" d="M194.86,20.12c-66.25,0-130.79,16.34-171.88,42.33v5c41.09-25.99,105.63-42.33,171.88-42.33s130.79,16.34,171.88,42.33v-5c-41.09-25.99-105.63-42.33-171.88-42.33Z"/>
      </g>
      <g>
        <rect class="cls-9" x="70.34" y="64.45" width="249.03" height="30.57" rx="5" ry="5"/>
        <text class="cls-6" transform="translate(122.35 87.79)"><tspan x="0" y="0">TELEPHONE</tspan></text>
      </g>
    </g>
    <rect class="cls-5" x="22.98" y="750.81" width="343.76" height="3.08"/>
  </g>
  <g id="s2">
    <g>
      <polygon class="cls-15" points="85.41 735.2 85.41 131.44 333.48 144.38 333.48 722.27 85.41 735.2"/>
      <polygon class="cls-4" points="89.5 735.2 89.5 131.44 337.57 142.1 337.57 724.54 89.5 735.2"/>
      <polygon class="cls-2" points="89.5 735.2 89.5 131.44 337.57 142.1 337.57 724.54 89.5 735.2"/>
    </g>
    <g>
      <polygon class="cls-8" points="89.5 735.2 89.5 131.44 337.12 142.1 337.12 724.54 89.5 735.2"/>
      <g class="cls-14">
        <path class="cls-3" d="M417.58,364.29c41.4-85.12,33.41-178.07-19.01-207.46-51.04-29.9-126.92,13.94-168.31,99.05-1.86,4.18-3.73,8.36-5.59,12.54-3.65-2.14-7.29-4.27-10.94-6.41-75.23-40.11-159.57-26.27-185.65,32.24-26.09,58.51,15.4,140.79,92.01,180.39,3.65,2.14,7.29,4.27,10.49,4.83-21.95,56.98-15.55,117.38,20.42,142.41,42.33,31.39,108.93,3.2,149.72-62.51,2.31-2.6,4.17-6.78,5.1-8.87,3.2.56,6.85,2.69,8.67,3.76,66.64,25.86,135.02,3.99,153.29-49.88,14.99-43.93-9.32-97.7-56.23-129.13,1.86-4.18,3.73-8.36,5.59-12.54l.45,1.58Z"/>
      </g>
      <polygon class="cls-7" points="276.03 727.17 89.5 271.31 89.91 196.37 305.06 725.92 276.03 727.17"/>
      <polygon class="cls-7" points="89.5 131.44 193.94 135.94 337.12 487.62 337.12 724.54 89.5 131.44"/>
      <polygon class="cls-2" points="337.12 442.44 89.5 442.77 89.5 426.19 337.12 426.44 337.12 442.44"/>
      <polygon class="cls-2" points="337.12 291.39 89.5 286.2 89.5 269.61 337.12 275.39 337.12 291.39"/>
      <polygon class="cls-5" points="337.12 291.39 89.5 286.2 89.5 283.85 337.12 289.12 337.12 291.39"/>
      <polygon class="cls-5" points="337.12 442.44 89.5 442.77 89.5 440.43 337.12 440.18 337.12 442.44"/>
      <polygon class="cls-2" points="337.12 593.49 89.5 599.35 89.5 582.77 337.12 577.49 337.12 593.49"/>
      <polygon class="cls-5" points="337.12 593.49 89.5 599.35 89.5 597.01 337.12 591.23 337.12 593.49"/>
      <polygon class="cls-2" points="160.11 732.16 160.11 134.48 174.23 135.09 174.23 731.55 160.11 732.16"/>
      <polygon class="cls-5" points="172.52 731.63 172.52 135.02 174.23 135.09 174.23 731.55 172.52 731.63"/>
      <polygon class="cls-5" points="160.11 732.16 160.11 134.48 161.83 134.56 161.83 732.09 160.11 732.16"/>
      <polygon class="cls-2" points="262.22 727.77 262.22 138.88 275.93 139.47 275.93 727.18 262.22 727.77"/>
      <polygon class="cls-5" points="274.32 727.24 274.32 139.4 275.98 139.47 275.98 727.17 274.32 727.24"/>
      <polygon class="cls-5" points="262.22 727.77 262.22 138.88 263.89 138.95 263.89 727.69 262.22 727.77"/>
      <path class="cls-2" d="M89.5,131.44v603.76l247.62-10.66V142.1l-247.62-10.66ZM322.19,708.83l-216.72,8.81V149.01l216.72,8.81v551.01Z"/>
    </g>
    <g>
      <path class="cls-11" d="M137.01,478.37c0,8.4-5.94,15.21-13.27,15.21s-13.26-6.81-13.26-15.21,5.94-15.21,13.26-15.21,13.27,6.81,13.27,15.21Z"/>
      <path class="cls-10" d="M135.03,472.16c0,8.4-5.94,15.21-13.26,15.21s-13.26-6.81-13.26-15.21,5.94-15.21,13.26-15.21,13.26,6.81,13.26,15.21Z"/>
      <path class="cls-12" d="M133.72,471.15c0,7.06-4.99,12.78-11.14,12.78s-11.14-5.72-11.14-12.78,4.99-12.78,11.14-12.78,11.14,5.72,11.14,12.78Z"/>
      <path class="cls-13" d="M128.37,466.48c0,3.36-2.87,6.09-6.4,6.09s-6.4-2.72-6.4-6.09,2.87-6.09,6.4-6.09,6.4,2.72,6.4,6.09Z"/>
    </g>
  </g>
</svg>