<?xml version="1.0" encoding="UTF-8"?>
<svg xmlns="http://www.w3.org/2000/svg" xmlns:xlink="http://www.w3.org/1999/xlink" viewBox="0 0 604.8 793.25">
  <defs>
    <style>
      .cls-1 {
        fill: none;
      }

      .cls-2, .cls-3 {
        fill: #3cb056;
      }

      .cls-4 {
        fill: #035f1d;
      }

      .cls-5, .cls-6 {
        fill: #00963e;
      }

      .cls-7 {
        fill: #fff;
        opacity: .65;
      }

      .cls-8 {
        fill: #e2e8f0;
      }

      .cls-9 {
        fill: #d8f999;
      }

      .cls-10 {
        fill: #f3702c;
      }

      .cls-11 {
        opacity: .3;
      }

      .cls-12 {
        fill: #fecc2b;
      }

      .cls-6 {
        font-family: Courier-Bold, Courier;
        font-size: 25px;
        font-weight: 700;
        letter-spacing: .05em;
      }

      .cls-13 {
        fill: #ffec85;
      }

      .cls-3 {
        opacity: .2;
      }

      .cls-14 {
        clip-path: url(#clippath);
      }

      .cls-15 {
        fill: #3cd256;
      }
    </style>
    <clipPath id="clippath">
      <rect class="cls-1" x="322.93" y="148.96" width="185.54" height="566.04"/>
    </clipPath>
  </defs>
  <g id="frame">
    <g>
      <path class="cls-2" d="M22.98,62.45v696.08h343.76V62.45s-343.76,0-343.76,0ZM337.12,724.54H52.6V142.1h284.52v582.44Z"/>
      <rect class="cls-5" x="22.98" y="111.95" width="343.76" height="3"/>
      <path class="cls-2" d="M18.43,753.89h352.82c1.65,0,3,1.34,3,3v36.36H15.44v-36.36c0-1.65,1.34-3,3-3Z"/>
      <path class="cls-5" d="M49.6,139.1v588.44h290.52V139.1H49.6ZM336.12,723.54H53.6V143.1h282.52v580.44Z"/>
      <g>
        <path class="cls-2" d="M194.86,2.12C128.61,2.12,64.07,18.46,22.98,44.45v37.36h343.76v-37.36C325.65,18.46,261.11,2.12,194.86,2.12Z"/>
        <path class="cls-2" d="M194.86,0C125.13,0,57.47,17.2,14.22,44.55l8.65,17.69c42.75-24.32,106.77-39.36,171.98-39.36s129.23,15.05,171.98,39.36l8.65-17.69C332.25,17.2,264.59,0,194.86,0Z"/>
        <path class="cls-5" d="M194.86,20.12c-66.25,0-130.79,16.34-171.88,42.33v5c41.09-25.99,105.63-42.33,171.88-42.33s130.79,16.34,171.88,42.33v-5c-41.09-25.99-105.63-42.33-171.88-42.33Z"/>
      </g>
      <g>
        <rect class="cls-9" x="104.25" y="64.45" width="181.22" height="30.57" rx="5" ry="5"/>
        <text class="cls-6" transform="translate(122.35 87.79)"><tspan x="0" y="0">TELEPHONE</tspan></text>
      </g>
    </g>
    <rect class="cls-5" x="22.98" y="750.81" width="343.76" height="3.08"/>
  </g>
  <g id="s10">
    <g>
      <polygon class="cls-15" points="532.05 764.2 532.05 102.68 522.8 101.11 322.79 143.95 322.79 722.71 522.8 765.53 532.05 764.2"/>
      <polygon class="cls-4" points="522.8 765.53 522.8 101.11 319.74 142.1 319.74 724.54 522.8 765.53"/>
      <polygon class="cls-2" points="522.8 765.53 522.8 101.11 319.74 142.1 319.74 724.54 522.8 765.53"/>
    </g>
    <g>
      <polygon class="cls-8" points="522.8 765.53 522.8 101.11 319.74 142.1 319.74 724.54 522.8 765.53"/>
      <g class="cls-14">
        <path class="cls-3" d="M243.86,364.29c-35.1-85.12-28.33-178.07,16.12-207.46,43.28-29.9,107.61,13.94,142.71,99.05,1.58,4.18,3.16,8.36,4.74,12.54,3.09-2.14,6.18-4.27,9.27-6.41,63.78-40.11,135.29-26.27,157.41,32.24,22.12,58.51-13.06,140.79-78.01,180.39-3.09,2.14-6.18,4.27-8.9,4.83,18.61,56.98,13.18,117.38-17.32,142.41-35.89,31.39-92.36,3.2-126.94-62.51-1.96-2.6-3.54-6.78-4.33-8.87-2.71.56-5.8,2.69-7.35,3.76-56.5,25.86-114.48,3.99-129.96-49.88-12.71-43.93,7.9-97.7,47.68-129.13-1.58-4.18-3.16-8.36-4.74-12.54l-.38,1.58Z"/>
      </g>
      <polygon class="cls-7" points="366.31 733.94 522.8 255.03 522.43 172.6 343.91 729.42 366.31 733.94"/>
      <polygon class="cls-7" points="522.8 101.11 432.38 119.36 319.74 487.62 319.74 724.54 522.8 101.11"/>
      <polygon class="cls-2" points="319.74 442.44 522.8 443.72 522.8 425.47 319.74 426.44 319.74 442.44"/>
      <polygon class="cls-2" points="319.74 291.39 522.8 271.41 522.8 253.16 319.74 275.39 319.74 291.39"/>
      <polygon class="cls-5" points="319.74 291.39 522.8 271.41 522.8 268.83 319.74 289.12 319.74 291.39"/>
      <polygon class="cls-5" points="319.74 442.44 522.8 443.72 522.8 441.14 319.74 440.18 319.74 442.44"/>
      <polygon class="cls-2" points="319.74 593.49 522.8 616.04 522.8 597.78 319.74 577.49 319.74 593.49"/>
      <polygon class="cls-5" points="319.74 593.49 522.8 616.04 522.8 613.45 319.74 591.23 319.74 593.49"/>
      <polygon class="cls-2" points="460.85 753.03 460.85 113.62 448.88 116.03 448.88 750.61 460.85 753.03"/>
      <polygon class="cls-5" points="450.32 750.9 450.32 115.74 448.88 116.03 448.88 750.61 450.32 750.9"/>
      <polygon class="cls-5" points="460.85 753.03 460.85 113.62 459.39 113.91 459.39 752.73 460.85 753.03"/>
      <polygon class="cls-2" points="377.13 736.13 377.13 130.52 366.39 132.69 366.39 733.96 377.13 736.13"/>
      <polygon class="cls-5" points="367.65 734.21 367.65 132.43 366.35 132.69 366.35 733.95 367.65 734.21"/>
      <polygon class="cls-5" points="377.13 736.13 377.13 130.52 375.82 130.78 375.82 735.86 377.13 736.13"/>
      <path class="cls-2" d="M522.8,101.11v664.42l-203.06-40.99V142.1l203.06-40.99ZM330.93,710.35l177.55,33.83V122.46l-177.55,33.83v554.06Z"/>
    </g>
    <g>
      <path class="cls-11" d="M487.39,476.66c0,8.4,5.03,15.21,11.23,15.21s11.23-6.81,11.23-15.21-5.03-15.21-11.23-15.21-11.23,6.81-11.23,15.21Z"/>
      <path class="cls-10" d="M485.13,470.45c0,8.4,5.03,15.21,11.23,15.21s11.23-6.81,11.23-15.21-5.03-15.21-11.23-15.21-11.23,6.81-11.23,15.21Z"/>
      <path class="cls-12" d="M485.11,469.44c0,7.06,4.08,12.78,9.11,12.78s9.11-5.72,9.11-12.78-4.08-12.78-9.11-12.78-9.11,5.72-9.11,12.78Z"/>
      <path class="cls-13" d="M487.82,464.77c0,3.36,2.2,6.09,4.91,6.09s4.91-2.72,4.91-6.09-2.2-6.09-4.91-6.09-4.91,2.72-4.91,6.09Z"/>
    </g>
  </g>
</svg>