<?xml version="1.0" encoding="UTF-8"?>
<svg xmlns="http://www.w3.org/2000/svg" viewBox="0 0 604.8 793.25">
  <defs>
    <style>
      .cls-1 {
        fill: #3cb056;
      }

      .cls-2 {
        fill: #035f1d;
      }

      .cls-3, .cls-4 {
        fill: #00963e;
      }

      .cls-5 {
        fill: #e2e8f0;
      }

      .cls-4 {
        font-family: Courier-Bold, Courier;
        font-size: 35px;
        font-weight: 700;
        letter-spacing: .05em;
      }

      .cls-6 {
        fill: #d8f999;
      }

      .cls-7 {
        fill: #fff;
      }

      .cls-8 {
        fill: #f3702c;
      }

      .cls-9 {
        opacity: .3;
      }

      .cls-10 {
        fill: #fecc2b;
      }

      .cls-11 {
        fill: #ffec85;
      }

      .cls-12 {
        fill: #3cd256;
      }
    </style>
  </defs>
  <g id="frame">
    <g>
      <path class="cls-1" d="M27.98,62.45v696.08h333.76V62.45s-333.76,0-333.76,0ZM337.12,724.54H52.6V142.1h284.52v582.44Z"/>
      <rect class="cls-3" x="27.98" y="111.95" width="333.76" height="3"/>
      <path class="cls-1" d="M23.43,753.89h342.82c1.65,0,3,1.34,3,3v36.36H20.44v-36.36c0-1.65,1.34-3,3-3Z"/>
      <path class="cls-3" d="M49.6,139.1v588.44h290.52V139.1H49.6ZM336.12,723.54H53.6V143.1h282.52v580.44Z"/>
      <g>
        <path class="cls-1" d="M194.86,2.12c-66.25,0-125.79,16.34-166.88,42.33v37.36h333.76v-37.36C320.65,18.46,261.11,2.12,194.86,2.12Z"/>
        <path class="cls-1" d="M194.86,0C125.13,0,62.47,17.2,19.22,44.55l8.65,17.69c42.75-24.32,101.77-39.36,166.98-39.36s124.23,15.05,166.98,39.36l8.65-17.69C327.25,17.2,264.59,0,194.86,0Z"/>
        <path class="cls-3" d="M194.86,20.12c-66.25,0-125.79,16.34-166.88,42.33v5c41.09-25.99,100.63-42.33,166.88-42.33s125.79,16.34,166.88,42.33v-5c-41.09-25.99-100.63-42.33-166.88-42.33Z"/>
      </g>
      <g>
        <rect class="cls-6" x="70.34" y="69.45" width="249.03" height="30.57"/>
        <text class="cls-4" transform="translate(93.34 94.79)"><tspan x="0" y="0">TELEPHONE</tspan></text>
        <g>
          <path class="cls-6" d="M218.15,41.14c-.59-1.52-1.69-2.55-3.27-3.07-2.91-.96-6.67.23-8.54.96-.5-.41-1.09-.74-1.77-.96-2.88-.95-6.61.21-8.5.94v-1.44h-2.43v1.44c-1.89-.74-5.61-1.89-8.5-.94-.68.22-1.27.55-1.77.96-1.87-.73-5.64-1.92-8.54-.96-1.58.52-2.68,1.55-3.27,3.07-1.29,3.32-.98,9.08,2.78,13.88,1.79,2.29,4.9,4.97,10.1,6.44h-1.87c-1,0-1.82.7-1.82,1.56s.81,1.56,1.82,1.56h24.57c1,0,1.82-.7,1.82-1.56s-.81-1.56-1.82-1.56h-1.87c5.2-1.47,8.3-4.14,10.1-6.44,3.75-4.8,4.07-10.56,2.78-13.88ZM203.7,40.01c.88.29,1.48.87,1.83,1.79,2.02,5.19-.53,16.56-9.46,19.17v-19.64c1.32-.64,5.25-2.11,7.63-1.32ZM186.02,40.01c2.38-.79,6.31.68,7.63,1.32v19.64c-5.4-1.58-7.87-6.06-8.86-8.6-1.63-4.19-1.48-8.33-.61-10.57.36-.91.96-1.5,1.83-1.79ZM176.36,53.87c-3.15-4.03-3.64-9.12-2.49-12.07.36-.91.96-1.5,1.83-1.79,1.83-.6,4.56.12,6.33.78-.05.12-.11.23-.16.35-1.22,3.14-.98,7.8.61,11.89,1.1,2.83,2.76,5.19,4.85,6.95-4.77-.9-8.52-2.97-10.98-6.11ZM193.54,61.46l.1-.26v.26h-.1ZM196.07,61.2l.1.26h-.1v-.26ZM213.36,53.87c-2.46,3.14-6.21,5.22-10.98,6.11,2.09-1.76,3.75-4.12,4.85-6.95,1.59-4.08,1.83-8.75.61-11.89-.05-.12-.1-.24-.16-.35,1.77-.66,4.51-1.38,6.33-.78.88.29,1.48.87,1.83,1.79,1.15,2.95.66,8.04-2.49,12.07Z"/>
          <path class="cls-6" d="M193.65,37.72h2.43v-1.56h3.78c.57,0,1.04-.46,1.04-1.04h0c0-.57-.46-1.04-1.04-1.04h-3.78v-1.34c0-.67-.54-1.21-1.21-1.21h0c-.67,0-1.21.54-1.21,1.21v1.34h-3.78c-.57,0-1.04.46-1.04,1.04h0c0,.57.46,1.04,1.04,1.04h3.78v1.56Z"/>
        </g>
      </g>
    </g>
    <rect class="cls-3" x="27.98" y="750.81" width="333.76" height="3.08"/>
  </g>
  <g id="s2">
    <g>
      <polygon class="cls-12" points="85.41 735.2 85.41 131.44 333.48 144.38 333.48 722.27 85.41 735.2"/>
      <polygon class="cls-2" points="89.5 735.2 89.5 131.44 337.57 142.1 337.57 724.54 89.5 735.2"/>
      <polygon class="cls-1" points="89.5 735.2 89.5 131.44 337.57 142.1 337.57 724.54 89.5 735.2"/>
    </g>
    <g>
      <polygon class="cls-5" points="89.5 735.2 89.5 131.44 337.12 142.1 337.12 724.54 89.5 735.2"/>
      <polygon class="cls-7" points="276.03 727.17 89.5 271.31 89.91 196.37 305.06 725.92 276.03 727.17"/>
      <polygon class="cls-7" points="89.5 131.44 193.94 135.94 337.12 487.62 337.12 724.54 89.5 131.44"/>
      <polygon class="cls-1" points="337.12 442.44 89.5 442.77 89.5 426.19 337.12 426.44 337.12 442.44"/>
      <polygon class="cls-1" points="337.12 291.39 89.5 286.2 89.5 269.61 337.12 275.39 337.12 291.39"/>
      <polygon class="cls-3" points="337.12 291.39 89.5 286.2 89.5 283.85 337.12 289.12 337.12 291.39"/>
      <polygon class="cls-3" points="337.12 442.44 89.5 442.77 89.5 440.43 337.12 440.18 337.12 442.44"/>
      <polygon class="cls-1" points="337.12 593.49 89.5 599.35 89.5 582.77 337.12 577.49 337.12 593.49"/>
      <polygon class="cls-3" points="337.12 593.49 89.5 599.35 89.5 597.01 337.12 591.23 337.12 593.49"/>
      <polygon class="cls-1" points="160.11 732.16 160.11 134.48 174.23 135.09 174.23 731.55 160.11 732.16"/>
      <polygon class="cls-3" points="172.52 731.63 172.52 135.02 174.23 135.09 174.23 731.55 172.52 731.63"/>
      <polygon class="cls-3" points="160.11 732.16 160.11 134.48 161.83 134.56 161.83 732.09 160.11 732.16"/>
      <polygon class="cls-1" points="262.22 727.77 262.22 138.88 275.93 139.47 275.93 727.18 262.22 727.77"/>
      <polygon class="cls-3" points="274.32 727.24 274.32 139.4 275.98 139.47 275.98 727.17 274.32 727.24"/>
      <polygon class="cls-3" points="262.22 727.77 262.22 138.88 263.89 138.95 263.89 727.69 262.22 727.77"/>
      <path class="cls-1" d="M89.5,131.44v603.76l247.62-10.66V142.1s-247.62-10.66-247.62-10.66ZM322.19,708.83l-216.72,8.81V149.01s216.72,8.81,216.72,8.81v551.01Z"/>
    </g>
    <g>
      <path class="cls-9" d="M137.01,478.37c0,8.4-5.94,15.21-13.27,15.21s-13.26-6.81-13.26-15.21,5.94-15.21,13.26-15.21,13.27,6.81,13.27,15.21Z"/>
      <path class="cls-8" d="M135.03,472.16c0,8.4-5.94,15.21-13.26,15.21s-13.26-6.81-13.26-15.21,5.94-15.21,13.26-15.21,13.26,6.81,13.26,15.21Z"/>
      <path class="cls-10" d="M133.72,471.15c0,7.06-4.99,12.78-11.14,12.78s-11.14-5.72-11.14-12.78,4.99-12.78,11.14-12.78,11.14,5.72,11.14,12.78Z"/>
      <path class="cls-11" d="M128.37,466.48c0,3.36-2.87,6.09-6.4,6.09s-6.4-2.72-6.4-6.09,2.87-6.09,6.4-6.09,6.4,2.72,6.4,6.09Z"/>
    </g>
  </g>
</svg>