<?xml version="1.0" encoding="UTF-8"?>
<svg xmlns="http://www.w3.org/2000/svg" xmlns:xlink="http://www.w3.org/1999/xlink" viewBox="0 0 604.8 793.25">
  <defs>
    <style>
      .cls-1 {
        fill: none;
      }

      .cls-2, .cls-3 {
        fill: #3cb056;
      }

      .cls-4 {
        fill: #035f1d;
      }

      .cls-5, .cls-6 {
        fill: #00963e;
      }

      .cls-7 {
        fill: #fff;
        opacity: .65;
      }

      .cls-8 {
        fill: #e2e8f0;
      }

      .cls-9 {
        fill: #d8f999;
      }

      .cls-10 {
        fill: #f3702c;
      }

      .cls-11 {
        opacity: .3;
      }

      .cls-12 {
        fill: #fecc2b;
      }

      .cls-6 {
        font-family: Courier-Bold, Courier;
        font-size: 25px;
        font-weight: 700;
        letter-spacing: .05em;
      }

      .cls-13 {
        fill: #ffec85;
      }

      .cls-3 {
        opacity: .2;
      }

      .cls-14 {
        clip-path: url(#clippath);
      }

      .cls-15 {
        fill: #3cd256;
      }
    </style>
    <clipPath id="clippath">
      <rect class="cls-1" x="334.7" y="148.96" width="217.11" height="566.04"/>
    </clipPath>
  </defs>
  <g id="frame">
    <g>
      <path class="cls-2" d="M22.98,62.45v696.08h343.76V62.45s-343.76,0-343.76,0ZM337.12,724.54H52.6V142.1h284.52v582.44Z"/>
      <rect class="cls-5" x="22.98" y="111.95" width="343.76" height="3"/>
      <path class="cls-2" d="M18.43,753.89h352.82c1.65,0,3,1.34,3,3v36.36H15.44v-36.36c0-1.65,1.34-3,3-3Z"/>
      <path class="cls-5" d="M49.6,139.1v588.44h290.52V139.1H49.6ZM336.12,723.54H53.6V143.1h282.52v580.44Z"/>
      <g>
        <path class="cls-2" d="M194.86,2.12C128.61,2.12,64.07,18.46,22.98,44.45v37.36h343.76v-37.36C325.65,18.46,261.11,2.12,194.86,2.12Z"/>
        <path class="cls-2" d="M194.86,0C125.13,0,57.47,17.2,14.22,44.55l8.65,17.69c42.75-24.32,106.77-39.36,171.98-39.36s129.23,15.05,171.98,39.36l8.65-17.69C332.25,17.2,264.59,0,194.86,0Z"/>
        <path class="cls-5" d="M194.86,20.12c-66.25,0-130.79,16.34-171.88,42.33v5c41.09-25.99,105.63-42.33,171.88-42.33s130.79,16.34,171.88,42.33v-5c-41.09-25.99-105.63-42.33-171.88-42.33Z"/>
      </g>
      <g>
        <rect class="cls-9" x="70.34" y="64.45" width="249.03" height="30.57" rx="5" ry="5"/>
        <text class="cls-6" transform="translate(122.35 87.79)"><tspan x="0" y="0">TELEPHONE</tspan></text>
      </g>
    </g>
    <rect class="cls-5" x="22.98" y="750.81" width="343.76" height="3.08"/>
  </g>
  <g id="s11">
    <g>
      <polygon class="cls-15" points="571.9 735.2 571.9 131.44 323.83 144.38 323.83 722.27 571.9 735.2"/>
      <polygon class="cls-4" points="567.81 735.2 567.81 131.44 319.74 142.1 319.74 724.54 567.81 735.2"/>
      <polygon class="cls-2" points="567.81 735.2 567.81 131.44 319.74 142.1 319.74 724.54 567.81 735.2"/>
    </g>
    <g>
      <polygon class="cls-8" points="567.81 735.2 567.81 131.44 319.74 142.1 319.74 724.54 567.81 735.2"/>
      <g class="cls-14">
        <path class="cls-3" d="M242.17,364.29c-41.07-85.12-33.15-178.07,18.86-207.46,50.64-29.9,125.92,13.94,166.99,99.05,1.85,4.18,3.7,8.36,5.55,12.54,3.62-2.14,7.23-4.27,10.85-6.41,74.64-40.11,158.31-26.27,184.19,32.24,25.88,58.51-15.28,140.79-91.28,180.39-3.62,2.14-7.23,4.27-10.41,4.83,21.78,56.98,15.43,117.38-20.26,142.41-42,31.39-108.07,3.2-148.54-62.51-2.29-2.6-4.14-6.78-5.06-8.87-3.18.56-6.79,2.69-8.6,3.76-66.11,25.86-133.95,3.99-152.08-49.88-14.87-43.93,9.25-97.7,55.79-129.13-1.85-4.18-3.7-8.36-5.55-12.54l-.44,1.58Z"/>
      </g>
      <polygon class="cls-7" points="380.94 727.17 567.81 271.31 567.4 196.37 351.86 725.92 380.94 727.17"/>
      <polygon class="cls-7" points="567.81 131.44 463.18 135.94 319.74 487.62 319.74 724.54 567.81 131.44"/>
      <polygon class="cls-2" points="319.74 442.44 567.81 442.77 567.81 426.19 319.74 426.44 319.74 442.44"/>
      <polygon class="cls-2" points="319.74 291.39 567.81 286.2 567.81 269.61 319.74 275.39 319.74 291.39"/>
      <polygon class="cls-5" points="319.74 291.39 567.81 286.2 567.81 283.85 319.74 289.12 319.74 291.39"/>
      <polygon class="cls-5" points="319.74 442.44 567.81 442.77 567.81 440.43 319.74 440.18 319.74 442.44"/>
      <polygon class="cls-2" points="319.74 593.49 567.81 599.35 567.81 582.77 319.74 577.49 319.74 593.49"/>
      <polygon class="cls-5" points="319.74 593.49 567.81 599.35 567.81 597 319.74 591.23 319.74 593.49"/>
      <polygon class="cls-2" points="497.07 732.16 497.07 134.48 482.93 135.09 482.93 731.55 497.07 732.16"/>
      <polygon class="cls-5" points="484.64 731.63 484.64 135.02 482.93 135.09 482.93 731.55 484.64 731.63"/>
      <polygon class="cls-5" points="497.07 732.16 497.07 134.48 495.35 134.56 495.35 732.09 497.07 732.16"/>
      <polygon class="cls-2" points="394.77 727.77 394.77 138.88 381.04 139.47 381.04 727.18 394.77 727.77"/>
      <polygon class="cls-5" points="382.66 727.24 382.66 139.4 380.99 139.47 380.99 727.17 382.66 727.24"/>
      <polygon class="cls-5" points="394.77 727.77 394.77 138.88 393.1 138.95 393.1 727.69 394.77 727.77"/>
      <path class="cls-2" d="M567.81,131.44v603.76l-248.07-10.66V142.1l248.07-10.66ZM334.7,708.83l217.11,8.81V149.01l-217.11,8.81v551.01Z"/>
    </g>
    <g>
      <path class="cls-11" d="M528.2,476.66c0,8.4,5.94,15.21,13.26,15.21s13.26-6.81,13.26-15.21-5.94-15.21-13.26-15.21-13.26,6.81-13.26,15.21Z"/>
      <path class="cls-10" d="M525.41,470.45c0,8.4,5.94,15.21,13.26,15.21s13.26-6.81,13.26-15.21-5.94-15.21-13.26-15.21-13.26,6.81-13.26,15.21Z"/>
      <path class="cls-12" d="M526.73,469.44c0,7.06,4.99,12.78,11.14,12.78s11.14-5.72,11.14-12.78-4.99-12.78-11.14-12.78-11.14,5.72-11.14,12.78Z"/>
      <path class="cls-13" d="M532.07,464.77c0,3.36,2.87,6.09,6.4,6.09s6.4-2.72,6.4-6.09-2.87-6.09-6.4-6.09-6.4,2.72-6.4,6.09Z"/>
    </g>
  </g>
</svg>