<?xml version="1.0" encoding="UTF-8"?>
<svg xmlns="http://www.w3.org/2000/svg" viewBox="0 0 604.8 793.25">
  <defs>
    <style>
      .cls-1 {
        fill: #3cb056;
      }

      .cls-2 {
        fill: #035f1d;
      }

      .cls-3, .cls-4 {
        fill: #00963e;
      }

      .cls-5 {
        fill: #e2e8f0;
      }

      .cls-4 {
        font-family: Courier-Bold, Courier;
        font-size: 35px;
        font-weight: 700;
        letter-spacing: .05em;
      }

      .cls-6 {
        fill: #d8f999;
      }

      .cls-7 {
        fill: #fff;
      }

      .cls-8 {
        fill: #f3702c;
      }

      .cls-9 {
        opacity: .3;
      }

      .cls-10 {
        fill: #fecc2b;
      }

      .cls-11 {
        fill: #ffec85;
      }

      .cls-12 {
        fill: #3cd256;
      }
    </style>
  </defs>
  <g id="frame">
    <g>
      <path class="cls-1" d="M27.98,62.45v696.08h333.76V62.45s-333.76,0-333.76,0ZM337.12,724.54H52.6V142.1h284.52v582.44Z"/>
      <rect class="cls-3" x="27.98" y="111.95" width="333.76" height="3"/>
      <path class="cls-1" d="M23.43,753.89h342.82c1.65,0,3,1.34,3,3v36.36H20.44v-36.36c0-1.65,1.34-3,3-3Z"/>
      <path class="cls-3" d="M49.6,139.1v588.44h290.52V139.1H49.6ZM336.12,723.54H53.6V143.1h282.52v580.44Z"/>
      <g>
        <path class="cls-1" d="M194.86,2.12c-66.25,0-125.79,16.34-166.88,42.33v37.36h333.76v-37.36C320.65,18.46,261.11,2.12,194.86,2.12Z"/>
        <path class="cls-1" d="M194.86,0C125.13,0,62.47,17.2,19.22,44.55l8.65,17.69c42.75-24.32,101.77-39.36,166.98-39.36s124.23,15.05,166.98,39.36l8.65-17.69C327.25,17.2,264.59,0,194.86,0Z"/>
        <path class="cls-3" d="M194.86,20.12c-66.25,0-125.79,16.34-166.88,42.33v5c41.09-25.99,100.63-42.33,166.88-42.33s125.79,16.34,166.88,42.33v-5c-41.09-25.99-100.63-42.33-166.88-42.33Z"/>
      </g>
      <g>
        <rect class="cls-6" x="70.34" y="64.45" width="249.03" height="30.57" rx="5" ry="5"/>
        <text class="cls-4" transform="translate(93.34 89.79)"><tspan x="0" y="0">TELEPHONE</tspan></text>
      </g>
    </g>
    <rect class="cls-3" x="27.98" y="750.81" width="333.76" height="3.08"/>
  </g>
  <g id="s8">
    <g>
      <ellipse class="cls-10" cx="400.26" cy="470.86" rx="11.23" ry="15.21"/>
      <path class="cls-8" d="M389.03,470.86c0-8.4,5.03-15.21,11.23-15.21.17,0,.33.06.49.07,3.66,2.81,6.2,8.5,6.2,15.15s-2.54,12.34-6.2,15.15c-.17,0-.32.07-.49.07-6.2,0-11.23-6.81-11.23-15.21Z"/>
      <path class="cls-11" d="M411.22,469.86c-1.08.29-2.67-2.1-3.55-5.34-.61-2.24-.71-4.28-.37-5.44,2.34,2.57,3.88,6.34,4.12,10.65-.06.04-.12.1-.19.12Z"/>
    </g>
    <g>
      <polygon class="cls-12" points="399.65 787.61 399.65 80.07 381.65 77.59 320.61 143.67 320.61 723.79 381.65 789.86 399.65 787.61"/>
      <polygon class="cls-2" points="381.65 789.86 381.65 77.59 319.74 142.1 319.74 725.35 381.65 789.86"/>
      <polygon class="cls-1" points="381.65 789.86 381.65 77.59 319.74 142.1 319.74 725.35 381.65 789.86"/>
    </g>
    <g>
      <polygon class="cls-5" points="381.65 789.86 381.65 77.59 319.74 142.1 319.74 724.54 381.65 789.86"/>
      <polygon class="cls-7" points="333.19 738.73 381.65 242.59 381.53 154.27 326.67 731.85 333.19 738.73"/>
      <polygon class="cls-7" points="381.65 77.59 353.01 107.43 319.74 487.62 319.74 724.54 381.65 77.59"/>
      <polygon class="cls-1" points="319.74 442.44 381.65 444.88 381.65 425.31 319.74 426.44 319.74 442.44"/>
      <polygon class="cls-1" points="319.74 291.39 381.65 260.15 381.65 240.59 319.74 275.39 319.74 291.39"/>
      <polygon class="cls-3" points="319.74 291.39 381.65 260.15 381.65 257.38 319.74 289.12 319.74 291.39"/>
      <polygon class="cls-3" points="319.74 442.44 381.65 444.88 381.65 442.11 319.74 440.18 319.74 442.44"/>
      <polygon class="cls-1" points="319.74 593.49 381.65 629.6 381.65 610.03 319.74 577.49 319.74 593.49"/>
      <polygon class="cls-3" points="319.74 593.49 381.65 629.6 381.65 626.83 319.74 591.23 319.74 593.49"/>
      <polygon class="cls-1" points="361.84 768.96 361.84 98.23 358.11 102.12 358.11 765.02 361.84 768.96"/>
      <polygon class="cls-3" points="358.55 765.49 358.55 101.65 358.11 102.12 358.11 765.02 358.55 765.49"/>
      <polygon class="cls-3" points="361.84 768.96 361.84 98.23 361.38 98.71 361.38 768.47 361.84 768.96"/>
      <polygon class="cls-1" points="336.38 742.1 336.38 124.76 333.22 128.06 333.22 738.76 336.38 742.1"/>
      <polygon class="cls-3" points="333.58 739.15 333.58 127.68 333.2 128.07 333.2 738.75 333.58 739.15"/>
      <polygon class="cls-3" points="336.38 742.1 336.38 124.76 335.99 125.17 335.99 741.69 336.38 742.1"/>
      <path class="cls-1" d="M381.65,77.59v712.27l-61.91-65.32V142.1l61.91-64.51ZM322.93,711.4l54.06,53.86V102.13l-54.06,53.16v556.12Z"/>
    </g>
    <g>
      <path class="cls-9" d="M365.59,477.06c0,8.4,2.34,15.21,5.22,15.21s5.22-6.81,5.22-15.21-2.34-15.21-5.22-15.21-5.22,6.81-5.22,15.21Z"/>
      <ellipse class="cls-8" cx="365.52" cy="470.86" rx="11.23" ry="15.21"/>
      <path class="cls-10" d="M355.01,468.79c-.87,7,1.35,13.04,4.95,13.49,3.6.44,7.22-4.87,8.09-11.88.87-7-1.35-13.04-4.95-13.49-3.6-.45-7.22,4.87-8.08,11.88Z"/>
      <path class="cls-11" d="M356.82,463.45c-.88,3.24-.07,6.29,1.82,6.8,1.89.51,4.13-1.7,5.02-4.94.88-3.24.07-6.29-1.82-6.8-1.89-.51-4.13,1.7-5.02,4.94Z"/>
    </g>
  </g>
</svg>