<?xml version="1.0" encoding="UTF-8"?>
<svg xmlns="http://www.w3.org/2000/svg" viewBox="0 0 604.8 793.25">
  <defs>
    <style>
      .cls-1 {
        fill: #3cb056;
      }

      .cls-2 {
        fill: #035f1d;
      }

      .cls-3, .cls-4 {
        fill: #00963e;
      }

      .cls-5 {
        fill: #e2e8f0;
      }

      .cls-4 {
        font-family: Courier-Bold, Courier;
        font-size: 35px;
        font-weight: 700;
        letter-spacing: .05em;
      }

      .cls-6 {
        fill: #d8f999;
      }

      .cls-7 {
        fill: #fff;
      }

      .cls-8 {
        fill: #f3702c;
      }

      .cls-9 {
        opacity: .3;
      }

      .cls-10 {
        fill: #fecc2b;
      }

      .cls-11 {
        fill: #ffec85;
      }

      .cls-12 {
        fill: #3cd256;
      }
    </style>
  </defs>
  <g id="frame">
    <g>
      <path class="cls-1" d="M27.98,62.45v696.08h333.76V62.45s-333.76,0-333.76,0ZM337.12,724.54H52.6V142.1h284.52v582.44Z"/>
      <rect class="cls-3" x="27.98" y="111.95" width="333.76" height="3"/>
      <path class="cls-1" d="M23.43,753.89h342.82c1.65,0,3,1.34,3,3v36.36H20.44v-36.36c0-1.65,1.34-3,3-3Z"/>
      <path class="cls-3" d="M49.6,139.1v588.44h290.52V139.1H49.6ZM336.12,723.54H53.6V143.1h282.52v580.44Z"/>
      <g>
        <path class="cls-1" d="M194.86,2.12c-66.25,0-125.79,16.34-166.88,42.33v37.36h333.76v-37.36C320.65,18.46,261.11,2.12,194.86,2.12Z"/>
        <path class="cls-1" d="M194.86,0C125.13,0,62.47,17.2,19.22,44.55l8.65,17.69c42.75-24.32,101.77-39.36,166.98-39.36s124.23,15.05,166.98,39.36l8.65-17.69C327.25,17.2,264.59,0,194.86,0Z"/>
        <path class="cls-3" d="M194.86,20.12c-66.25,0-125.79,16.34-166.88,42.33v5c41.09-25.99,100.63-42.33,166.88-42.33s125.79,16.34,166.88,42.33v-5c-41.09-25.99-100.63-42.33-166.88-42.33Z"/>
      </g>
      <g>
        <rect class="cls-6" x="70.34" y="64.45" width="249.03" height="30.57" rx="5" ry="5"/>
        <text class="cls-4" transform="translate(93.34 89.79)"><tspan x="0" y="0">TELEPHONE</tspan></text>
      </g>
    </g>
    <rect class="cls-3" x="27.98" y="750.81" width="333.76" height="3.08"/>
  </g>
  <g id="s3">
    <g>
      <polygon class="cls-12" points="124.81 764.2 124.81 102.68 134.06 101.11 334.07 143.95 334.07 722.71 134.06 765.53 124.81 764.2"/>
      <polygon class="cls-2" points="134.06 765.53 134.06 101.11 337.12 142.1 337.12 724.54 134.06 765.53"/>
      <polygon class="cls-1" points="134.06 765.53 134.06 101.11 337.12 142.1 337.12 724.54 134.06 765.53"/>
    </g>
    <g>
      <polygon class="cls-5" points="134.06 765.53 134.06 101.11 337.12 142.1 337.12 724.54 134.06 765.53"/>
      <polygon class="cls-7" points="290.55 733.94 134.06 255.03 134.43 172.6 312.94 729.42 290.55 733.94"/>
      <polygon class="cls-7" points="134.06 101.11 224.48 119.36 337.12 487.62 337.12 724.54 134.06 101.11"/>
      <polygon class="cls-1" points="337.12 442.44 134.06 443.72 134.06 425.47 337.12 426.44 337.12 442.44"/>
      <polygon class="cls-1" points="337.12 291.39 134.06 271.41 134.06 253.16 337.12 275.39 337.12 291.39"/>
      <polygon class="cls-3" points="337.12 291.39 134.06 271.41 134.06 268.83 337.12 289.12 337.12 291.39"/>
      <polygon class="cls-3" points="337.12 442.44 134.06 443.72 134.06 441.14 337.12 440.18 337.12 442.44"/>
      <polygon class="cls-1" points="337.12 593.49 134.06 616.04 134.06 597.78 337.12 577.49 337.12 593.49"/>
      <polygon class="cls-3" points="337.12 593.49 134.06 616.04 134.06 613.45 337.12 591.23 337.12 593.49"/>
      <polygon class="cls-1" points="196.01 753.03 196.01 113.62 207.98 116.03 207.98 750.61 196.01 753.03"/>
      <polygon class="cls-3" points="206.54 750.9 206.54 115.74 207.98 116.03 207.98 750.61 206.54 750.9"/>
      <polygon class="cls-3" points="196.01 753.03 196.01 113.62 197.47 113.91 197.47 752.73 196.01 753.03"/>
      <polygon class="cls-1" points="279.72 736.13 279.72 130.52 290.47 132.69 290.47 733.96 279.72 736.13"/>
      <polygon class="cls-3" points="289.21 734.21 289.21 132.43 290.51 132.69 290.51 733.95 289.21 734.21"/>
      <polygon class="cls-3" points="279.72 736.13 279.72 130.52 281.04 130.78 281.04 735.86 279.72 736.13"/>
      <path class="cls-1" d="M134.06,101.11v664.42l203.06-40.99V142.1l-203.06-40.99ZM325.93,710.35l-177.55,33.83V122.46l177.55,33.83v554.06Z"/>
    </g>
    <g>
      <path class="cls-9" d="M175.7,478.46c0,8.4-5.03,15.21-11.23,15.21s-11.23-6.81-11.23-15.21,5.03-15.21,11.23-15.21,11.23,6.81,11.23,15.21Z"/>
      <path class="cls-8" d="M175.7,472.25c0,8.4-5.03,15.21-11.23,15.21s-11.23-6.81-11.23-15.21,5.03-15.21,11.23-15.21,11.23,6.81,11.23,15.21Z"/>
      <path class="cls-10" d="M175.72,471.24c0,7.06-4.08,12.78-9.11,12.78s-9.11-5.72-9.11-12.78,4.08-12.78,9.11-12.78,9.11,5.72,9.11,12.78Z"/>
      <path class="cls-11" d="M173.01,466.57c0,3.36-2.2,6.09-4.91,6.09s-4.91-2.72-4.91-6.09,2.2-6.09,4.91-6.09,4.91,2.72,4.91,6.09Z"/>
    </g>
  </g>
</svg>