<?xml version="1.0" encoding="UTF-8"?>
<svg xmlns="http://www.w3.org/2000/svg" viewBox="0 0 604.8 793.25">
  <defs>
    <style>
      .cls-1 {
        fill: #3cb056;
      }

      .cls-2 {
        fill: #035f1d;
      }

      .cls-3, .cls-4 {
        fill: #00963e;
      }

      .cls-5 {
        fill: #e2e8f0;
      }

      .cls-4 {
        font-family: Courier-Bold, Courier;
        font-size: 35px;
        font-weight: 700;
        letter-spacing: .05em;
      }

      .cls-6 {
        fill: #d8f999;
      }

      .cls-7 {
        fill: #fff;
      }

      .cls-8 {
        fill: #f3702c;
      }

      .cls-9 {
        opacity: .3;
      }

      .cls-10 {
        fill: #fecc2b;
      }

      .cls-11 {
        fill: #ffec85;
      }

      .cls-12 {
        fill: #3cd256;
      }
    </style>
  </defs>
  <g id="frame">
    <g>
      <path class="cls-1" d="M27.98,62.45v696.08h333.76V62.45s-333.76,0-333.76,0ZM337.12,724.54H52.6V142.1h284.52v582.44Z"/>
      <rect class="cls-3" x="27.98" y="111.95" width="333.76" height="3"/>
      <path class="cls-1" d="M23.43,753.89h342.82c1.65,0,3,1.34,3,3v36.36H20.44v-36.36c0-1.65,1.34-3,3-3Z"/>
      <path class="cls-3" d="M49.6,139.1v588.44h290.52V139.1H49.6ZM336.12,723.54H53.6V143.1h282.52v580.44Z"/>
      <g>
        <path class="cls-1" d="M194.86,2.12c-66.25,0-125.79,16.34-166.88,42.33v37.36h333.76v-37.36C320.65,18.46,261.11,2.12,194.86,2.12Z"/>
        <path class="cls-1" d="M194.86,0C125.13,0,62.47,17.2,19.22,44.55l8.65,17.69c42.75-24.32,101.77-39.36,166.98-39.36s124.23,15.05,166.98,39.36l8.65-17.69C327.25,17.2,264.59,0,194.86,0Z"/>
        <path class="cls-3" d="M194.86,20.12c-66.25,0-125.79,16.34-166.88,42.33v5c41.09-25.99,100.63-42.33,166.88-42.33s125.79,16.34,166.88,42.33v-5c-41.09-25.99-100.63-42.33-166.88-42.33Z"/>
      </g>
      <g>
        <rect class="cls-6" x="70.34" y="64.45" width="249.03" height="30.57" rx="5" ry="5"/>
        <text class="cls-4" transform="translate(93.34 89.79)"><tspan x="0" y="0">TELEPHONE</tspan></text>
      </g>
    </g>
    <rect class="cls-3" x="27.98" y="750.81" width="333.76" height="3.08"/>
  </g>
  <g id="s5">
    <g>
      <path class="cls-10" d="M245.36,471.86c0,8.4,5.03,15.21,11.23,15.21s11.23-6.81,11.23-15.21-5.03-15.21-11.23-15.21-11.23,6.81-11.23,15.21Z"/>
      <path class="cls-8" d="M267.83,471.86c0-8.4-5.03-15.21-11.23-15.21-.17,0-.33.06-.49.07-3.66,2.81-6.2,8.5-6.2,15.15s2.54,12.34,6.2,15.15c.17.01.32.07.49.07,6.2,0,11.23-6.81,11.23-15.21Z"/>
      <path class="cls-11" d="M245.64,470.86c1.08.29,2.67-2.1,3.55-5.34.61-2.24.71-4.28.37-5.44-2.34,2.56-3.88,6.34-4.12,10.65.06.04.12.1.19.12Z"/>
    </g>
    <g>
      <polygon class="cls-12" points="257.21 787.61 257.21 80.07 275.21 77.59 336.25 143.67 336.25 723.79 275.21 789.86 257.21 787.61"/>
      <polygon class="cls-2" points="275.21 789.86 275.21 77.59 337.12 142.1 337.12 725.35 275.21 789.86"/>
      <polygon class="cls-1" points="275.21 789.86 275.21 77.59 337.12 142.1 338.04 724.94 275.21 789.86"/>
    </g>
    <g>
      <polygon class="cls-5" points="275.21 789.86 275.21 77.59 337.12 142.1 337.12 724.54 275.21 789.86"/>
      <polygon class="cls-7" points="323.67 738.73 275.21 242.59 275.33 154.27 330.19 731.85 323.67 738.73"/>
      <polygon class="cls-7" points="275.21 77.59 303.84 107.43 337.12 487.62 337.12 724.54 275.21 77.59"/>
      <polygon class="cls-1" points="337.12 442.44 275.21 444.88 275.21 425.31 337.12 426.44 337.12 442.44"/>
      <polygon class="cls-1" points="337.12 291.39 275.21 260.15 275.21 240.59 337.12 275.39 337.12 291.39"/>
      <polygon class="cls-3" points="337.12 291.39 275.21 260.15 275.21 257.38 337.12 289.12 337.12 291.39"/>
      <polygon class="cls-3" points="337.12 442.44 275.21 444.88 275.21 442.11 337.12 440.18 337.12 442.44"/>
      <polygon class="cls-1" points="337.12 593.49 275.21 629.6 275.21 610.03 337.12 577.49 337.12 593.49"/>
      <polygon class="cls-3" points="337.12 593.49 275.21 629.6 275.21 626.83 337.12 591.23 337.12 593.49"/>
      <polygon class="cls-1" points="295.02 768.96 295.02 98.23 298.75 102.12 298.75 765.02 295.02 768.96"/>
      <polygon class="cls-3" points="298.3 765.49 298.3 101.65 298.75 102.12 298.75 765.02 298.3 765.49"/>
      <polygon class="cls-3" points="295.02 768.96 295.02 98.23 295.48 98.71 295.48 768.47 295.02 768.96"/>
      <polygon class="cls-1" points="320.48 742.1 320.48 124.76 323.64 128.06 323.64 738.76 320.48 742.1"/>
      <polygon class="cls-3" points="323.27 739.15 323.27 127.68 323.65 128.07 323.65 738.75 323.27 739.15"/>
      <polygon class="cls-3" points="320.48 742.1 320.48 124.76 320.87 125.17 320.87 741.69 320.48 742.1"/>
      <path class="cls-1" d="M275.21,77.59v712.27l61.91-65.32V142.1l-61.91-64.51ZM333.92,711.4l-54.06,53.86V102.13l54.06,53.16v556.12Z"/>
    </g>
    <g>
      <path class="cls-9" d="M289.59,477.06c0,8.4-2.34,15.21-5.22,15.21s-5.22-6.81-5.22-15.21,2.34-15.21,5.22-15.21,5.22,6.81,5.22,15.21Z"/>
      <path class="cls-8" d="M302.57,470.86c0,8.4-5.03,15.21-11.23,15.21s-11.23-6.81-11.23-15.21,5.03-15.21,11.23-15.21,11.23,6.81,11.23,15.21Z"/>
      <path class="cls-10" d="M301.85,468.8c.87,7-1.35,13.04-4.95,13.49-3.6.44-7.22-4.87-8.09-11.88-.87-7,1.35-13.04,4.95-13.49,3.6-.45,7.22,4.87,8.09,11.88Z"/>
      <path class="cls-11" d="M300.04,463.45c.88,3.24.07,6.29-1.82,6.8-1.89.51-4.13-1.7-5.02-4.94-.88-3.24-.07-6.29,1.82-6.8,1.89-.51,4.13,1.7,5.02,4.94Z"/>
    </g>
  </g>
</svg>