<?xml version="1.0" encoding="UTF-8"?>
<svg xmlns="http://www.w3.org/2000/svg" viewBox="0 0 604.8 793.25">
  <defs>
    <style>
      .cls-1 {
        fill: #3cb056;
      }

      .cls-2 {
        fill: #035f1d;
      }

      .cls-3, .cls-4 {
        fill: #00963e;
      }

      .cls-5 {
        fill: #e2e8f0;
      }

      .cls-4 {
        font-family: Courier-Bold, Courier;
        font-size: 35px;
        font-weight: 700;
        letter-spacing: .05em;
      }

      .cls-6 {
        fill: #d8f999;
      }

      .cls-7 {
        fill: #fff;
      }

      .cls-8 {
        fill: #f3702c;
      }

      .cls-9 {
        opacity: .3;
      }

      .cls-10 {
        fill: #fecc2b;
      }

      .cls-11 {
        fill: #ffec85;
      }

      .cls-12 {
        fill: #3cd256;
      }
    </style>
  </defs>
  <g id="frame">
    <g>
      <path class="cls-1" d="M27.98,62.45v696.08h333.76V62.45s-333.76,0-333.76,0ZM337.12,724.54H52.6V142.1h284.52v582.44Z"/>
      <rect class="cls-3" x="27.98" y="111.95" width="333.76" height="3"/>
      <path class="cls-1" d="M23.43,753.89h342.82c1.65,0,3,1.34,3,3v36.36H20.44v-36.36c0-1.65,1.34-3,3-3Z"/>
      <path class="cls-3" d="M49.6,139.1v588.44h290.52V139.1H49.6ZM336.12,723.54H53.6V143.1h282.52v580.44Z"/>
      <g>
        <path class="cls-1" d="M194.86,2.12c-66.25,0-125.79,16.34-166.88,42.33v37.36h333.76v-37.36C320.65,18.46,261.11,2.12,194.86,2.12Z"/>
        <path class="cls-1" d="M194.86,0C125.13,0,62.47,17.2,19.22,44.55l8.65,17.69c42.75-24.32,101.77-39.36,166.98-39.36s124.23,15.05,166.98,39.36l8.65-17.69C327.25,17.2,264.59,0,194.86,0Z"/>
        <path class="cls-3" d="M194.86,20.12c-66.25,0-125.79,16.34-166.88,42.33v5c41.09-25.99,100.63-42.33,166.88-42.33s125.79,16.34,166.88,42.33v-5c-41.09-25.99-100.63-42.33-166.88-42.33Z"/>
      </g>
      <g>
        <rect class="cls-6" x="70.34" y="64.45" width="249.03" height="30.57" rx="5" ry="5"/>
        <text class="cls-4" transform="translate(93.34 89.79)"><tspan x="0" y="0">TELEPHONE</tspan></text>
      </g>
    </g>
    <rect class="cls-3" x="27.98" y="750.81" width="333.76" height="3.08"/>
  </g>
  <g id="s9">
    <g>
      <polygon class="cls-12" points="454.82 787.61 454.82 80.07 439.86 77.59 321.43 143.67 321.43 723.79 439.86 789.86 454.82 787.61"/>
      <polygon class="cls-2" points="439.86 789.86 439.86 77.59 319.74 142.1 319.74 725.35 439.86 789.86"/>
      <polygon class="cls-1" points="439.86 789.86 439.86 77.59 319.74 142.1 319.74 725.35 439.86 789.86"/>
    </g>
    <g>
      <polygon class="cls-5" points="439.86 789.86 439.86 77.59 319.74 142.1 319.74 724.54 439.86 789.86"/>
      <polygon class="cls-7" points="345.84 738.73 439.86 242.59 439.63 154.27 333.19 731.85 345.84 738.73"/>
      <polygon class="cls-7" points="439.86 77.59 384.3 107.43 319.74 487.62 319.74 724.54 439.86 77.59"/>
      <polygon class="cls-1" points="319.74 442.44 439.86 444.88 439.86 425.31 319.74 426.44 319.74 442.44"/>
      <polygon class="cls-1" points="319.74 291.39 439.86 260.15 439.86 240.59 319.74 275.39 319.74 291.39"/>
      <polygon class="cls-3" points="319.74 291.39 439.86 260.15 439.86 257.38 319.74 289.12 319.74 291.39"/>
      <polygon class="cls-3" points="319.74 442.44 439.86 444.88 439.86 442.11 319.74 440.18 319.74 442.44"/>
      <polygon class="cls-1" points="319.74 593.49 439.86 629.6 439.86 610.03 319.74 577.49 319.74 593.49"/>
      <polygon class="cls-3" points="319.74 593.49 439.86 629.6 439.86 626.83 319.74 591.23 319.74 593.49"/>
      <polygon class="cls-1" points="401.42 768.96 401.42 98.23 394.18 102.12 394.18 765.02 401.42 768.96"/>
      <polygon class="cls-3" points="395.05 765.49 395.05 101.65 394.18 102.12 394.18 765.02 395.05 765.49"/>
      <polygon class="cls-3" points="401.42 768.96 401.42 98.23 400.54 98.71 400.54 768.47 401.42 768.96"/>
      <polygon class="cls-1" points="352.03 742.1 352.03 124.76 345.89 128.06 345.89 738.76 352.03 742.1"/>
      <polygon class="cls-3" points="346.6 739.15 346.6 127.68 345.87 128.07 345.87 738.75 346.6 739.15"/>
      <polygon class="cls-3" points="352.03 742.1 352.03 124.76 351.27 125.17 351.27 741.69 352.03 742.1"/>
      <path class="cls-1" d="M439.86,77.59v712.27l-120.12-65.32V142.1l120.12-64.51ZM325.94,711.4l104.89,53.86V102.13l-104.89,53.16v556.12Z"/>
    </g>
    <g>
      <path class="cls-9" d="M413.8,477.06c0,8.4,3.46,15.21,7.73,15.21s7.73-6.81,7.73-15.21-3.46-15.21-7.73-15.21-7.73,6.81-7.73,15.21Z"/>
      <path class="cls-8" d="M404.69,470.86c0,8.4,5.03,15.21,11.23,15.21s11.23-6.81,11.23-15.21-5.03-15.21-11.23-15.21-11.23,6.81-11.23,15.21Z"/>
      <path class="cls-10" d="M405.41,468.79c-.87,7,1.35,13.04,4.95,13.49,3.6.44,7.22-4.87,8.08-11.88.87-7-1.35-13.04-4.95-13.49-3.6-.45-7.22,4.87-8.08,11.88Z"/>
      <path class="cls-11" d="M407.92,464.4c-.41,3.34.83,6.23,2.77,6.47,1.94.24,3.85-2.27,4.26-5.6.41-3.34-.83-6.23-2.77-6.47-1.94-.24-3.85,2.27-4.26,5.6Z"/>
    </g>
  </g>
</svg>